<svg width="57" height="55" viewBox="0 0 57 55" fill="none" xmlns="http://www.w3.org/2000/svg">
<rect width="57" height="55" fill="white"/>
<path d="M47.2568 4.00684C49.8989 4.14053 52 6.32472 52 9V41L51.9932 41.2568C51.8638 43.8138 49.8138 45.8638 47.2568 45.9932L47 46H15C12.3247 46 10.1405 43.8989 10.0068 41.2568L10 41V9C10 6.23858 12.2386 4 15 4H47L47.2568 4.00684ZM15 5.5C13.067 5.5 11.5 7.067 11.5 9V41C11.5 42.933 13.067 44.5 15 44.5H47C48.933 44.5 50.5 42.933 50.5 41V9C50.5 7.067 48.933 5.5 47 5.5H15Z" fill="black"/>
<rect x="4.75" y="22.75" width="27.5" height="27.5" rx="4.25" fill="white" stroke="black" stroke-width="1.5"/>
<path d="M47.75 8C47.75 7.58579 47.4142 7.25 47 7.25H40.25C39.8358 7.25 39.5 7.58579 39.5 8C39.5 8.41421 39.8358 8.75 40.25 8.75H46.25V14.75C46.25 15.1642 46.5858 15.5 47 15.5C47.4142 15.5 47.75 15.1642 47.75 14.75V8ZM31 24L31.5303 24.5303L47.5303 8.53033L47 8L46.4697 7.46967L30.4697 23.4697L31 24Z" fill="black"/>
</svg>
